<svg
   class="mainTitleSvg"
   width="134.66579mm"
   height="86.697762mm"
   viewBox="0 0 134.66579 86.697762"
   version="1.1"
   id="svg1"
   xmlns="http://www.w3.org/2000/svg"
   xmlns:svg="http://www.w3.org/2000/svg">
   <g id="layer1" transform="translate(213.19121,117.25517)">
      <g id="svg-g">
         <path
            d="m -119.3394,-93.677079 c -3.27609,0 -6.27919,0.52672 -9.00927,1.579749 -2.73007,1.014027 -5.10949,2.476277 -7.13754,4.387329 -2.02806,1.911052 -3.6077,4.153684 -4.73873,6.727754 -1.09203,2.574071 -1.63763,5.401603 -1.63763,8.482687 0,3.081084 0.5456,5.908616 1.63763,8.482686 1.13103,2.574071 2.69128,4.816703 4.68033,6.727755 2.02806,1.911052 4.38757,3.393211 7.07864,4.44624 2.73007,1.014028 5.71379,1.520838 8.95087,1.520838 2.92508,0 5.8501,-0.448113 8.77518,-1.345138 2.96408,-0.897024 5.55786,-2.184217 7.78092,-3.861263 v -16.61449 h -8.65839 v 12.00857 c -0.63663,0.335016 -1.27854,0.635149 -1.93063,0.861962 -1.75505,0.585016 -3.56844,0.877466 -5.44049,0.877466 -1.95006,0 -3.74406,-0.31236 -5.3821,-0.936377 -1.59905,-0.624017 -3.00312,-1.52076 -4.21215,-2.690791 -1.17003,-1.209034 -2.08668,-2.613103 -2.7497,-4.212146 -0.62402,-1.599044 -0.93586,-3.35426 -0.93586,-5.265312 0,-1.950053 0.31184,-3.724663 0.93586,-5.323706 0.66302,-1.599044 1.57967,-2.983203 2.7497,-4.153235 1.20903,-1.170032 2.6325,-2.067292 4.27054,-2.691309 1.63805,-0.624017 3.45144,-0.93586 5.4405,-0.93586 2.06705,0 3.97845,0.389933 5.7335,1.169955 1.75504,0.74102 3.37347,1.891426 4.85551,3.451468 l 6.08387,-5.616194 c -1.98905,-2.301063 -4.44605,-4.055762 -7.37113,-5.264795 -2.88608,-1.209033 -6.14233,-1.813843 -9.76943,-1.813843 z"
            style="font-weight:600;font-size:58.5016px;line-height:0.9;font-family:'Clash Display';-inkscape-font-specification:'Clash Display Semi-Bold';fill:#c9c9c9;fill-opacity:1;stroke:#222;stroke-width:2.5;stroke-linejoin:round;stroke-opacity:1"
            id="path11" />
      </g>
      <g id="svg-v">
         <path
            d="m -171.07108,-92.974796 17.66714,40.950989 h 9.36067 l 17.72553,-40.950989 h -9.41854 l -12.64316,29.247827 -12.45402,-29.247827 z"
            style="font-weight:600;font-size:58.5016px;line-height:0.9;font-family:'Clash Display';-inkscape-font-specification:'Clash Display Semi-Bold';fill:#c9c9c9;fill-opacity:1;stroke:#222;stroke-width:2.5;stroke-linejoin:round;stroke-opacity:1"
            id="path10" />
      </g>
      <g id="svg-s">
         <path
            d="m -173.88791,-93.677079 c -3.8611,0 -7.07857,0.5849 -9.65264,1.754932 -2.53507,1.131031 -4.44595,2.671887 -5.73298,4.62194 -1.24804,1.911052 -1.87224,4.036291 -1.87224,6.376355 0,2.18406 0.42872,3.978062 1.28674,5.3821 0.89703,1.404039 2.04795,2.535568 3.45199,3.393592 1.40404,0.858023 2.94438,1.559799 4.62142,2.105814 1.71605,0.546015 3.41257,1.014038 5.08961,1.404049 1.71605,0.351009 3.2763,0.740943 4.68034,1.169954 1.40404,0.390011 2.53505,0.916731 3.39307,1.579749 0.85803,0.624017 1.28675,1.481973 1.28675,2.574003 0,0.858023 -0.27306,1.618496 -0.81907,2.281514 -0.54602,0.663019 -1.40398,1.189738 -2.57401,1.579749 -1.13103,0.35101 -2.63258,0.526066 -4.50463,0.526066 -2.45707,0 -4.89467,-0.389933 -7.31273,-1.169954 -2.37907,-0.819023 -4.44613,-1.852552 -6.20118,-3.100586 l -3.21737,7.137548 c 1.83305,1.404039 4.25126,2.554445 7.25434,3.451469 3.00308,0.858024 6.14245,1.286744 9.41854,1.286744 3.90011,0 7.11758,-0.5849 9.65264,-1.754932 2.57407,-1.170032 4.50486,-2.710371 5.7919,-4.621423 1.28703,-1.911053 1.93063,-4.017415 1.93063,-6.318478 0,-2.145058 -0.44863,-3.919667 -1.34565,-5.323706 -0.85803,-1.404038 -1.98904,-2.535051 -3.39308,-3.393074 -1.40404,-0.858024 -2.96429,-1.540407 -4.68033,-2.047421 -1.67705,-0.507013 -3.37357,-0.955643 -5.08961,-1.345654 -1.67705,-0.390011 -3.21739,-0.779944 -4.62143,-1.169954 -1.40404,-0.390011 -2.53505,-0.896821 -3.39307,-1.520838 -0.85803,-0.663018 -1.28726,-1.520974 -1.28726,-2.574003 0,-0.897024 0.25366,-1.677407 0.76067,-2.340425 0.50702,-0.70202 1.34558,-1.267526 2.51561,-1.696538 1.17004,-0.429011 2.67159,-0.643371 4.50464,-0.643371 1.83305,0 3.70514,0.273056 5.61619,0.819071 1.91105,0.507014 3.82193,1.30679 5.73299,2.39882 l 2.9254,-7.195943 c -1.91105,-1.209033 -4.1149,-2.106293 -6.61097,-2.691309 -2.49607,-0.624017 -5.03115,-0.93586 -7.60522,-0.93586 z"
            style="font-weight:600;font-size:58.5016px;line-height:0.9;font-family:'Clash Display';-inkscape-font-specification:'Clash Display Semi-Bold';fill:#c9c9c9;fill-opacity:1;stroke:#222;stroke-width:2.5;stroke-linejoin:round;stroke-opacity:1"
            id="path9" />
      </g>
      <g class="flowAnim-3">
         <g id="star-3">
            <path
               style="fill:#c9c9c9;fill-opacity:1;stroke:#222;stroke-width:1.35854;stroke-linejoin:round;stroke-dasharray:none;stroke-opacity:1;paint-order:normal"
               id="path2"
               d="m 34.498209,-179.95276 2.125198,4.77857 4.367443,2.87693 -4.778576,2.1252 -2.876926,4.36744 -2.125198,-4.77858 -4.367442,-2.87692 4.778575,-2.1252 z"
               transform="matrix(1.1041253,0,0,1.1041253,-171.2996,99.540101)" />
         </g>
      </g>
      <g class="flowAnim-2">
         <g id="star-2">
            <path
                  style="fill:#c9c9c9;fill-opacity:1;stroke:#222;stroke-width:3.73967;stroke-linecap:round;stroke-linejoin:round;stroke-dasharray:none;stroke-opacity:1;paint-order:stroke fill markers"
                  id="path2-21-7"
                  transform="matrix(0.40110483,0,0,0.40110483,-155.65842,-30.557738)"
                  d="m 34.498209,-179.95276 2.125198,4.77857 4.367443,2.87693 -4.778576,2.1252 -2.876926,4.36744 -2.125198,-4.77858 -4.367442,-2.87692 4.778575,-2.1252 z" />
         </g>
      </g>
      <g class="flowAnim-1">
         <g id="star-1">
            <path
               style="fill:#c9c9c9;fill-opacity:1;stroke:#222;stroke-width:3.73967;stroke-linecap:round;stroke-linejoin:round;stroke-dasharray:none;stroke-opacity:1;paint-order:stroke fill markers"
               id="path2-21"
               d="m 34.498209,-179.95276 2.125198,4.77857 4.367443,2.87693 -4.778576,2.1252 -2.876926,4.36744 -2.125198,-4.77858 -4.367442,-2.87692 4.778575,-2.1252 z"
               transform="matrix(0.75687474,0,0,0.75687474,-214.05119,56.270881)" />
         </g>
      </g>
   </g>

   <style>
   .mainTitleSvg:hover #svg-s,  
   .mainTitleSvg:hover #svg-v,  
   .mainTitleSvg:hover #svg-g,  
   .mainTitleSvg:hover .flowAnim-1,  
   .mainTitleSvg:hover .flowAnim-2,  
   .mainTitleSvg:hover .flowAnim-3 {
      animation: flow 1s infinite ease-in-out;
   }

    .mainTitleSvg:hover #svg-v,  
    .mainTitleSvg:hover .flowAnim-2,  
    .mainTitleSvg:hover .flowAnim-3 {
      animation-delay: .2s;
   }

   .mainTitleSvg:hover #svg-g {
      animation-delay: .4s;
   }

   .mainTitleSvg:hover #star-1,  
   .mainTitleSvg:hover #star-2, 
   .mainTitleSvg:hover #star-3{
      animation: roll 1s infinite ease-in-out;
      transform-origin: 50% 50%;
      transform-box: border-box;
   }

   @keyframes roll {
      0% {transform: rotate(0deg)}
      100% {transform: rotate(360deg)}
   }

   @keyframes flow {
      25%{transform:translateY(-8px);}
      75%{transform:translateY(8px);}
   }
   </style>
</svg>
